# xmcd CD database file
#
# Track frame offsets:
#	150
#	19374
#	40625
#	61255
#	77860
#	94626
#	114281
#	133024
#	148220
#	162518
#	172588
#	186833
#
# Disc length: 2667 seconds
#
# Revision: 3
# Processed by: cddbd v1.5.1PL0 Copyright (c) Steve Scherf et al.
# Submitted via: CDex 1.51
#
DISCID=990a690c
DTITLE=ぱじゃまソフト - プリンセスうぃっちぃず 豪華初回版特典 「プリっちスーパーアレンジサントラCD」
DYEAR=2005
DGENRE=Soundtrack
TTITLE0=中山(はぁと)マミ&U-KO - I'll try my best!!
TTITLE1=NANA - Refrain
TTITLE2=ぱじゃまソフト - Aerial Rave - re-mix -
TTITLE3=ぱじゃまソフト - Air Raid - re-mix -
TTITLE4=ぱじゃまソフト - Assult Fight - re-mix -
TTITLE5=ぱじゃまソフト - A Grudge Of The Darkness - re-mix -
TTITLE6=ぱじゃまソフト - Raising Soul - re-mix -
TTITLE7=ぱじゃまソフト - 愛すべき日常へ - famicom-mix -
TTITLE8=ぱじゃまソフト - 闘い終わりて、暁沈む - famicom-mix -
TTITLE9=ぱじゃまソフト - 君と “おおさわぎ” - famicom-mix -
TTITLE10=ぱじゃまソフト - Viva La!! 魔女っ娘委員会!! - famicom-mix -
TTITLE11=ぱじゃまソフト - Aerial Rave - famicom-mix -
EXTD=YEAR: 2005
EXTT0=
EXTT1=
EXTT2=
EXTT3=
EXTT4=
EXTT5=
EXTT6=
EXTT7=
EXTT8=
EXTT9=
EXTT10=
EXTT11=
PLAYORDER=
